<?xml version="1.0" encoding="utf-8"?>
<!-- Generator: Adobe Illustrator 12.0.0, SVG Export Plug-In . SVG Version: 6.00 Build 51448)  -->
<!DOCTYPE svg PUBLIC "-//W3C//DTD SVG 1.1//EN" "http://www.w3.org/Graphics/SVG/1.1/DTD/svg11.dtd" [
	<!ENTITY ns_svg "http://www.w3.org/2000/svg">
	<!ENTITY ns_xlink "http://www.w3.org/1999/xlink">
]>
<svg  version="1.1" xmlns="&ns_svg;" xmlns:xlink="&ns_xlink;" width="842.89" height="596.275" viewBox="0 0 842.89 596.275"
	 overflow="visible" enable-background="new 0 0 842.89 596.275" xml:space="preserve">
<g id="GRID">
	<g>
		
			<line fill="none" stroke="#3C5BA2" stroke-width="7" stroke-dasharray="7 7" x1="232.101" y1="78.546" x2="232.101" y2="493.994"/>
		
			<line fill="none" stroke="#3C5BA2" stroke-width="7" stroke-dasharray="7 7" x1="312.819" y1="78.546" x2="312.819" y2="493.994"/>
		
			<line fill="none" stroke="#3C5BA2" stroke-width="7" stroke-dasharray="7 7" x1="393.539" y1="78.546" x2="393.539" y2="493.994"/>
		
			<line fill="none" stroke="#3C5BA2" stroke-width="7" stroke-dasharray="7 7" x1="474.256" y1="78.546" x2="474.256" y2="493.994"/>
		
			<line fill="none" stroke="#3C5BA2" stroke-width="7" stroke-dasharray="7 7" x1="554.976" y1="78.546" x2="554.976" y2="493.994"/>
		
			<line fill="none" stroke="#3C5BA2" stroke-width="7" stroke-dasharray="7 7" x1="635.693" y1="78.546" x2="635.693" y2="493.994"/>
		
			<line fill="none" stroke="#3C5BA2" stroke-width="7" stroke-dasharray="7 7" x1="716.413" y1="78.546" x2="716.413" y2="493.994"/>
		
			<line fill="none" stroke="#3C5BA2" stroke-width="7" stroke-dasharray="7 7" x1="797.131" y1="78.546" x2="797.131" y2="493.994"/>
	</g>
	<g>
		<rect x="227.535" y="446.615" fill-rule="evenodd" clip-rule="evenodd" fill="#C6C7C8" width="578.196" height="9.044"/>
		<rect x="227.535" y="325.548" fill-rule="evenodd" clip-rule="evenodd" fill="#C6C7C8" width="578.196" height="9.045"/>
		<rect x="227.535" y="224.66" fill-rule="evenodd" clip-rule="evenodd" fill="#C6C7C8" width="578.196" height="9.045"/>
		<rect x="227.535" y="123.075" fill-rule="evenodd" clip-rule="evenodd" fill="#C6C7C8" width="578.196" height="9.045"/>
	</g>
	<rect x="0.5" y="0.5" fill-rule="evenodd" clip-rule="evenodd" fill="none" stroke="#000000" width="841.89" height="595.275"/>
</g>
<g id="Original">
	<polygon fill-rule="evenodd" clip-rule="evenodd" fill="#881519" points="231.709,69.5 281.11,69.5 281.11,123.075 
		308.245,123.075 308.245,69.5 361.821,69.5 361.821,123.075 388.956,123.075 388.956,69.5 442.531,69.5 442.531,123.075 
		469.667,123.075 469.667,69.5 523.242,69.5 523.242,123.075 550.377,123.075 550.377,69.5 603.953,69.5 603.953,123.075 
		631.088,123.075 631.088,69.5 684.664,69.5 684.664,123.075 711.799,123.075 711.799,69.5 765.375,69.5 765.375,118.901 
		792.51,118.901 792.51,69.5 805.73,69.5 805.73,78.545 801.556,78.545 801.556,127.25 756.329,127.25 756.329,78.545 
		720.845,78.545 720.845,132.121 675.618,132.121 675.618,78.545 640.135,78.545 640.135,132.121 594.908,132.121 594.908,78.545 
		559.423,78.545 559.423,132.121 514.197,132.121 514.197,78.545 478.712,78.545 478.712,132.121 433.486,132.121 433.486,78.545 
		398.001,78.545 398.001,132.121 352.774,132.121 352.774,78.545 317.291,78.545 317.291,132.121 272.064,132.121 272.064,78.545 
		236.58,78.545 236.58,132.121 227.534,132.121 227.534,69.5 231.709,69.5 	"/>
	<polygon fill-rule="evenodd" clip-rule="evenodd" fill="#881519" points="805.73,180.129 720.845,180.129 720.845,233.705 
		675.618,233.705 675.618,180.129 559.423,180.129 559.423,233.705 469.667,233.705 469.667,180.129 447.401,180.129 
		447.401,233.705 388.956,233.705 388.956,180.129 361.821,180.129 361.821,233.705 272.064,233.705 272.064,180.129 
		227.534,180.129 227.534,171.084 281.11,171.084 281.11,224.66 352.774,224.66 352.774,171.084 398.001,171.084 398.001,224.66 
		438.356,224.66 438.356,171.084 478.712,171.084 478.712,224.66 550.377,224.66 550.377,171.084 684.664,171.084 684.664,224.66 
		711.799,224.66 711.799,171.084 805.73,171.084 	"/>
</g>
<g id="NEU">
	<g>
		<polygon fill-rule="evenodd" clip-rule="evenodd" fill="#881519" points="236.58,419.827 236.58,482.447 227.535,482.447 
			227.535,419.827 231.709,419.827 231.709,419.827 		"/>
	</g>
	<g>
		<polygon fill-rule="evenodd" clip-rule="evenodd" fill="#881519" points="236.58,298.705 236.58,361.325 227.534,361.325 
			227.534,298.705 231.709,298.705 231.709,298.705 		"/>
		<polygon fill-rule="evenodd" clip-rule="evenodd" fill="#881519" points="317.291,298.705 317.291,361.325 308.245,361.325 
			308.245,298.705 312.42,298.705 312.42,298.705 		"/>
		<polygon fill-rule="evenodd" clip-rule="evenodd" fill="#881519" points="640.135,298.705 640.135,361.325 631.088,361.325 
			631.088,298.705 635.263,298.705 635.263,298.705 		"/>
		<polygon fill-rule="evenodd" clip-rule="evenodd" fill="#881519" points="523.242,298.705 523.242,361.325 514.197,361.325 
			514.197,298.705 518.371,298.705 518.371,298.705 		"/>
		<polygon fill-rule="evenodd" clip-rule="evenodd" fill="#881519" points="603.953,298.705 603.953,361.325 594.908,361.325 
			594.908,298.705 599.082,298.705 599.082,298.705 		"/>
		<polygon fill-rule="evenodd" clip-rule="evenodd" fill="#881519" points="765.375,298.705 765.375,361.325 756.329,361.325 
			756.329,298.705 760.504,298.705 760.504,298.705 		"/>
		<polygon fill-rule="evenodd" clip-rule="evenodd" fill="#881519" points="227.534,298.705 317.291,298.705 317.291,307.749 
			227.534,307.749 227.534,303.574 227.534,303.574 		"/>
		<polygon fill-rule="evenodd" clip-rule="evenodd" fill="#881519" points="514.197,298.705 603.953,298.705 603.953,307.749 
			514.197,307.749 514.197,303.574 514.197,303.574 		"/>
		<polygon fill-rule="evenodd" clip-rule="evenodd" fill="#881519" points="711.799,298.705 765.375,298.705 765.375,307.749 
			711.799,307.749 711.799,303.574 711.799,303.574 		"/>
		<polygon fill-rule="evenodd" clip-rule="evenodd" fill="#881519" points="469.667,352.279 523.242,352.279 523.242,361.325 
			469.667,361.325 469.667,357.149 469.667,357.149 		"/>
		<polygon fill-rule="evenodd" clip-rule="evenodd" fill="#881519" points="308.245,352.279 398.001,352.279 398.001,361.325 
			308.245,361.325 308.245,357.149 308.245,357.149 		"/>
		<polygon fill-rule="evenodd" clip-rule="evenodd" fill="#881519" points="388.956,352.279 478.712,352.279 478.712,361.325 
			388.956,361.325 388.956,357.149 388.956,357.149 		"/>
		<polygon fill-rule="evenodd" clip-rule="evenodd" fill="#881519" points="631.088,298.705 684.664,298.705 684.664,307.749 
			631.088,307.749 631.088,303.574 631.088,303.574 		"/>
		<polygon fill-rule="evenodd" clip-rule="evenodd" fill="#881519" points="756.329,352.279 801.556,352.279 801.556,361.325 
			756.329,361.325 756.329,357.149 756.329,357.149 		"/>
		<polygon fill-rule="evenodd" clip-rule="evenodd" fill="#881519" points="667.27,298.705 720.845,298.705 720.845,307.749 
			667.27,307.749 667.27,303.574 667.27,303.574 		"/>
		<polygon fill-rule="evenodd" clip-rule="evenodd" fill="#881519" points="594.908,352.279 640.135,352.279 640.135,361.325 
			594.908,361.325 594.908,357.149 594.908,357.149 		"/>
		<polygon fill-rule="evenodd" clip-rule="evenodd" fill="#881519" points="801.556,298.705 801.556,361.325 792.51,361.325 
			792.51,298.705 796.685,298.705 796.685,298.705 		"/>
		<polygon fill-rule="evenodd" clip-rule="evenodd" fill="#881519" points="792.51,298.705 805.73,298.705 805.73,307.751 
			792.51,307.751 792.51,303.575 792.51,303.575 		"/>
	</g>
	<g>
		<polygon fill-rule="evenodd" clip-rule="evenodd" fill="#881519" points="236.58,482.447 236.58,419.827 227.535,419.827 
			227.535,482.447 231.709,482.447 231.709,482.447 		"/>
		<polygon fill-rule="evenodd" clip-rule="evenodd" fill="#881519" points="317.291,482.447 317.291,419.827 308.246,419.827 
			308.246,482.447 312.42,482.447 312.42,482.447 		"/>
		<polygon fill-rule="evenodd" clip-rule="evenodd" fill="#881519" points="640.135,482.447 640.135,419.827 631.088,419.827 
			631.088,482.447 635.264,482.447 635.264,482.447 		"/>
		<polygon fill-rule="evenodd" clip-rule="evenodd" fill="#881519" points="523.242,482.447 523.242,419.827 514.197,419.827 
			514.197,482.447 518.371,482.447 518.371,482.447 		"/>
		<polygon fill-rule="evenodd" clip-rule="evenodd" fill="#881519" points="603.953,482.447 603.953,419.827 594.908,419.827 
			594.908,482.447 599.082,482.447 599.082,482.447 		"/>
		<polygon fill-rule="evenodd" clip-rule="evenodd" fill="#881519" points="765.375,482.447 765.375,419.827 756.33,419.827 
			756.33,482.447 760.504,482.447 760.504,482.447 		"/>
		<polygon fill-rule="evenodd" clip-rule="evenodd" fill="#881519" points="227.535,482.447 317.291,482.447 317.291,473.403 
			227.535,473.403 227.535,477.578 227.535,477.578 		"/>
		<polygon fill-rule="evenodd" clip-rule="evenodd" fill="#881519" points="514.197,482.447 603.953,482.447 603.953,473.403 
			514.197,473.403 514.197,477.578 514.197,477.578 		"/>
		<polygon fill-rule="evenodd" clip-rule="evenodd" fill="#881519" points="711.799,482.447 765.375,482.447 765.375,473.403 
			711.799,473.403 711.799,477.578 711.799,477.578 		"/>
		<polygon fill-rule="evenodd" clip-rule="evenodd" fill="#881519" points="469.668,428.873 523.242,428.873 523.242,419.827 
			469.668,419.827 469.668,424.003 469.668,424.003 		"/>
		<polygon fill-rule="evenodd" clip-rule="evenodd" fill="#881519" points="308.246,428.873 398.001,428.873 398.001,419.827 
			308.246,419.827 308.246,424.003 308.246,424.003 		"/>
		<polygon fill-rule="evenodd" clip-rule="evenodd" fill="#881519" points="388.956,428.873 478.713,428.873 478.713,419.827 
			388.956,419.827 388.956,424.003 388.956,424.003 		"/>
		<polygon fill-rule="evenodd" clip-rule="evenodd" fill="#881519" points="631.088,482.447 684.664,482.447 684.664,473.403 
			631.088,473.403 631.088,477.578 631.088,477.578 		"/>
		<polygon fill-rule="evenodd" clip-rule="evenodd" fill="#881519" points="756.33,428.873 801.557,428.873 801.557,419.827 
			756.33,419.827 756.33,424.003 756.33,424.003 		"/>
		<polygon fill-rule="evenodd" clip-rule="evenodd" fill="#881519" points="667.27,482.447 720.846,482.447 720.846,473.403 
			667.27,473.403 667.27,477.578 667.27,477.578 		"/>
		<polygon fill-rule="evenodd" clip-rule="evenodd" fill="#881519" points="594.908,428.873 640.135,428.873 640.135,419.827 
			594.908,419.827 594.908,424.003 594.908,424.003 		"/>
		<polygon fill-rule="evenodd" clip-rule="evenodd" fill="#881519" points="801.557,482.447 801.557,419.827 792.51,419.827 
			792.51,482.447 796.686,482.447 796.686,482.447 		"/>
		<polygon fill-rule="evenodd" clip-rule="evenodd" fill="#881519" points="792.51,482.447 805.73,482.447 805.73,473.401 
			792.51,473.401 792.51,477.577 792.51,477.577 		"/>
	</g>
</g>
<g id="Layer_4">
	<text transform="matrix(1 0 0 1 119.2925 132.3198)"><tspan x="0" y="0" stroke="#FFFFFF" stroke-width="0.25" font-family="'UbuntuMono-Regular'" font-size="35.4885">Clock</tspan><tspan x="45.583" y="58.446" stroke="#FFFFFF" stroke-width="0.25" font-family="'UbuntuMono-Regular'" font-size="37.5723"> </tspan><tspan x="64.369" y="58.446" stroke="#FFFFFF" stroke-width="0.25" font-family="'UbuntuMono-Regular'" font-size="48.7048"> </tspan><tspan x="17.744" y="101.032" stroke="#FFFFFF" stroke-width="0.25" font-family="'UbuntuMono-Regular'" font-size="35.4885">Data</tspan><tspan x="45.583" y="159.478" stroke="#FFFFFF" stroke-width="0.25" font-family="'UbuntuMono-Regular'" font-size="37.5723"> </tspan><tspan x="64.369" y="159.478" stroke="#FFFFFF" stroke-width="0.25" font-family="'UbuntuMono-Regular'" font-size="48.7048"> </tspan><tspan x="-88.721" y="202.064" stroke="#FFFFFF" stroke-width="0.25" font-family="'UbuntuMono-Regular'" font-size="35.4885">Manchester</tspan><tspan x="-86.616" y="222.103" stroke="#FFFFFF" stroke-width="0.25" font-family="'UbuntuMono-Regular'" font-size="16.6988">(as per G. E. Thomas)</tspan><tspan x="45.583" y="280.548" stroke="#FFFFFF" stroke-width="0.25" font-family="'UbuntuMono-Regular'" font-size="37.5723"> </tspan><tspan x="64.369" y="280.548" stroke="#FFFFFF" stroke-width="0.25" font-family="'UbuntuMono-Regular'" font-size="48.7048"> </tspan><tspan x="-88.721" y="323.134" stroke="#FFFFFF" stroke-width="0.25" font-family="'UbuntuMono-Regular'" font-size="35.4885">Manchester</tspan><tspan x="-69.917" y="343.173" stroke="#FFFFFF" stroke-width="0.25" font-family="'UbuntuMono-Regular'" font-size="16.6988">(as per IEEE 802.3)</tspan></text>
</g>
</svg>
